<svg xmlns="http://www.w3.org/2000/svg" width="210" height="250" viewBox="0 0 210 250"><rect width="210" height="250" rx="18" fill="white"/><g fill="#111"><rect x="18" y="18" width="8" height="8"/><rect x="26" y="18" width="8" height="8"/><rect x="34" y="18" width="8" height="8"/><rect x="42" y="18" width="8" height="8"/><rect x="50" y="18" width="8" height="8"/><rect x="58" y="18" width="8" height="8"/><rect x="66" y="18" width="8" height="8"/><rect x="74" y="18" width="8" height="8"/><rect x="98" y="18" width="8" height="8"/><rect x="114" y="18" width="8" height="8"/><rect x="130" y="18" width="8" height="8"/><rect x="138" y="18" width="8" height="8"/><rect x="146" y="18" width="8" height="8"/><rect x="154" y="18" width="8" height="8"/><rect x="162" y="18" width="8" height="8"/><rect x="170" y="18" width="8" height="8"/><rect x="178" y="18" width="8" height="8"/><rect x="18" y="26" width="8" height="8"/><rect x="66" y="26" width="8" height="8"/><rect x="82" y="26" width="8" height="8"/><rect x="106" y="26" width="8" height="8"/><rect x="122" y="26" width="8" height="8"/><rect x="130" y="26" width="8" height="8"/><rect x="178" y="26" width="8" height="8"/><rect x="18" y="34" width="8" height="8"/><rect x="34" y="34" width="8" height="8"/><rect x="42" y="34" width="8" height="8"/><rect x="50" y="34" width="8" height="8"/><rect x="66" y="34" width="8" height="8"/><rect x="82" y="34" width="8" height="8"/><rect x="106" y="34" width="8" height="8"/><rect x="114" y="34" width="8" height="8"/><rect x="130" y="34" width="8" height="8"/><rect x="146" y="34" width="8" height="8"/><rect x="154" y="34" width="8" height="8"/><rect x="162" y="34" width="8" height="8"/><rect x="178" y="34" width="8" height="8"/><rect x="18" y="42" width="8" height="8"/><rect x="34" y="42" width="8" height="8"/><rect x="42" y="42" width="8" height="8"/><rect x="50" y="42" width="8" height="8"/><rect x="66" y="42" width="8" height="8"/><rect x="74" y="42" width="8" height="8"/><rect x="82" y="42" width="8" height="8"/><rect x="122" y="42" width="8" height="8"/><rect x="130" y="42" width="8" height="8"/><rect x="146" y="42" width="8" height="8"/><rect x="154" y="42" width="8" height="8"/><rect x="162" y="42" width="8" height="8"/><rect x="178" y="42" width="8" height="8"/><rect x="18" y="50" width="8" height="8"/><rect x="34" y="50" width="8" height="8"/><rect x="42" y="50" width="8" height="8"/><rect x="50" y="50" width="8" height="8"/><rect x="66" y="50" width="8" height="8"/><rect x="130" y="50" width="8" height="8"/><rect x="146" y="50" width="8" height="8"/><rect x="154" y="50" width="8" height="8"/><rect x="162" y="50" width="8" height="8"/><rect x="178" y="50" width="8" height="8"/><rect x="18" y="58" width="8" height="8"/><rect x="66" y="58" width="8" height="8"/><rect x="98" y="58" width="8" height="8"/><rect x="106" y="58" width="8" height="8"/><rect x="114" y="58" width="8" height="8"/><rect x="130" y="58" width="8" height="8"/><rect x="178" y="58" width="8" height="8"/><rect x="18" y="66" width="8" height="8"/><rect x="26" y="66" width="8" height="8"/><rect x="34" y="66" width="8" height="8"/><rect x="42" y="66" width="8" height="8"/><rect x="50" y="66" width="8" height="8"/><rect x="58" y="66" width="8" height="8"/><rect x="66" y="66" width="8" height="8"/><rect x="74" y="66" width="8" height="8"/><rect x="98" y="66" width="8" height="8"/><rect x="122" y="66" width="8" height="8"/><rect x="130" y="66" width="8" height="8"/><rect x="138" y="66" width="8" height="8"/><rect x="146" y="66" width="8" height="8"/><rect x="154" y="66" width="8" height="8"/><rect x="162" y="66" width="8" height="8"/><rect x="170" y="66" width="8" height="8"/><rect x="178" y="66" width="8" height="8"/><rect x="18" y="74" width="8" height="8"/><rect x="42" y="74" width="8" height="8"/><rect x="58" y="74" width="8" height="8"/><rect x="74" y="74" width="8" height="8"/><rect x="98" y="74" width="8" height="8"/><rect x="114" y="74" width="8" height="8"/><rect x="130" y="74" width="8" height="8"/><rect x="154" y="74" width="8" height="8"/><rect x="170" y="74" width="8" height="8"/><rect x="26" y="82" width="8" height="8"/><rect x="50" y="82" width="8" height="8"/><rect x="66" y="82" width="8" height="8"/><rect x="82" y="82" width="8" height="8"/><rect x="106" y="82" width="8" height="8"/><rect x="122" y="82" width="8" height="8"/><rect x="138" y="82" width="8" height="8"/><rect x="162" y="82" width="8" height="8"/><rect x="178" y="82" width="8" height="8"/><rect x="26" y="90" width="8" height="8"/><rect x="50" y="90" width="8" height="8"/><rect x="58" y="90" width="8" height="8"/><rect x="82" y="90" width="8" height="8"/><rect x="106" y="90" width="8" height="8"/><rect x="114" y="90" width="8" height="8"/><rect x="138" y="90" width="8" height="8"/><rect x="162" y="90" width="8" height="8"/><rect x="170" y="90" width="8" height="8"/><rect x="18" y="98" width="8" height="8"/><rect x="26" y="98" width="8" height="8"/><rect x="66" y="98" width="8" height="8"/><rect x="74" y="98" width="8" height="8"/><rect x="82" y="98" width="8" height="8"/><rect x="122" y="98" width="8" height="8"/><rect x="130" y="98" width="8" height="8"/><rect x="138" y="98" width="8" height="8"/><rect x="178" y="98" width="8" height="8"/><rect x="42" y="114" width="8" height="8"/><rect x="50" y="114" width="8" height="8"/><rect x="58" y="114" width="8" height="8"/><rect x="98" y="114" width="8" height="8"/><rect x="106" y="114" width="8" height="8"/><rect x="114" y="114" width="8" height="8"/><rect x="154" y="114" width="8" height="8"/><rect x="162" y="114" width="8" height="8"/><rect x="170" y="114" width="8" height="8"/><rect x="18" y="122" width="8" height="8"/><rect x="42" y="122" width="8" height="8"/><rect x="66" y="122" width="8" height="8"/><rect x="74" y="122" width="8" height="8"/><rect x="98" y="122" width="8" height="8"/><rect x="122" y="122" width="8" height="8"/><rect x="130" y="122" width="8" height="8"/><rect x="154" y="122" width="8" height="8"/><rect x="178" y="122" width="8" height="8"/><rect x="18" y="130" width="8" height="8"/><rect x="26" y="130" width="8" height="8"/><rect x="34" y="130" width="8" height="8"/><rect x="42" y="130" width="8" height="8"/><rect x="50" y="130" width="8" height="8"/><rect x="58" y="130" width="8" height="8"/><rect x="66" y="130" width="8" height="8"/><rect x="74" y="130" width="8" height="8"/><rect x="98" y="130" width="8" height="8"/><rect x="114" y="130" width="8" height="8"/><rect x="130" y="130" width="8" height="8"/><rect x="154" y="130" width="8" height="8"/><rect x="170" y="130" width="8" height="8"/><rect x="18" y="138" width="8" height="8"/><rect x="66" y="138" width="8" height="8"/><rect x="82" y="138" width="8" height="8"/><rect x="106" y="138" width="8" height="8"/><rect x="122" y="138" width="8" height="8"/><rect x="138" y="138" width="8" height="8"/><rect x="162" y="138" width="8" height="8"/><rect x="178" y="138" width="8" height="8"/><rect x="18" y="146" width="8" height="8"/><rect x="34" y="146" width="8" height="8"/><rect x="42" y="146" width="8" height="8"/><rect x="50" y="146" width="8" height="8"/><rect x="66" y="146" width="8" height="8"/><rect x="82" y="146" width="8" height="8"/><rect x="106" y="146" width="8" height="8"/><rect x="114" y="146" width="8" height="8"/><rect x="138" y="146" width="8" height="8"/><rect x="162" y="146" width="8" height="8"/><rect x="170" y="146" width="8" height="8"/><rect x="18" y="154" width="8" height="8"/><rect x="34" y="154" width="8" height="8"/><rect x="42" y="154" width="8" height="8"/><rect x="50" y="154" width="8" height="8"/><rect x="66" y="154" width="8" height="8"/><rect x="74" y="154" width="8" height="8"/><rect x="82" y="154" width="8" height="8"/><rect x="122" y="154" width="8" height="8"/><rect x="130" y="154" width="8" height="8"/><rect x="138" y="154" width="8" height="8"/><rect x="178" y="154" width="8" height="8"/><rect x="18" y="162" width="8" height="8"/><rect x="34" y="162" width="8" height="8"/><rect x="42" y="162" width="8" height="8"/><rect x="50" y="162" width="8" height="8"/><rect x="66" y="162" width="8" height="8"/><rect x="18" y="170" width="8" height="8"/><rect x="66" y="170" width="8" height="8"/><rect x="98" y="170" width="8" height="8"/><rect x="106" y="170" width="8" height="8"/><rect x="114" y="170" width="8" height="8"/><rect x="154" y="170" width="8" height="8"/><rect x="162" y="170" width="8" height="8"/><rect x="170" y="170" width="8" height="8"/><rect x="18" y="178" width="8" height="8"/><rect x="26" y="178" width="8" height="8"/><rect x="34" y="178" width="8" height="8"/><rect x="42" y="178" width="8" height="8"/><rect x="50" y="178" width="8" height="8"/><rect x="58" y="178" width="8" height="8"/><rect x="66" y="178" width="8" height="8"/><rect x="74" y="178" width="8" height="8"/><rect x="98" y="178" width="8" height="8"/><rect x="122" y="178" width="8" height="8"/><rect x="130" y="178" width="8" height="8"/><rect x="154" y="178" width="8" height="8"/><rect x="178" y="178" width="8" height="8"/></g><text x="105" y="215" text-anchor="middle" font-family="Arial" font-size="20" font-weight="700" fill="#a50064">MoMo</text><text x="105" y="235" text-anchor="middle" font-family="Arial" font-size="10" fill="#666">QR MÔ PHỎNG ĐỒ ÁN</text></svg>