<svg width="245" height="41" viewBox="0 0 245 41" fill="none" xmlns="http://www.w3.org/2000/svg">
<rect width="245" height="41" fill="#F5F5F5"/>
<g id="Trang danh m&#225;&#187;&#165;c SP">
<rect width="1280" height="1772.52" transform="translate(-966.258 -1485.82)" fill="white"/>
<rect width="1280" height="1772.52" transform="translate(-966.258 -1485.82)" fill="#FCF9F8"/>
<g id="Footer">
<rect width="1280" height="410.6" transform="translate(-966.258 -123.898)" fill="#D9E6DA"/>
<g id="Container">
<g id="Container_2">
<g id="Container_3">
<path id="Nh&#225;&#186;&#173;n th&#195;&#180;ng tin khuy&#225;&#186;&#191;n m&#195;&#163;i v&#195;&#160; m&#225;&#186;&#185;o v&#225;&#186;&#183;t s&#225;&#187;&#169;c kh&#225;&#187;&#143;e h&#195;&#160;ng tu&#225;&#186;&#167;n." d="M9.8125 1.72656V13.1016H8.29688L2.57031 4.32812V13.1016H1.0625V1.72656H2.57031L8.32031 10.5234V1.72656H9.8125ZM13.7109 1.10156V13.1016H12.2656V1.10156H13.7109ZM13.3672 8.55469L12.7656 8.53125C12.7708 7.95312 12.8568 7.41927 13.0234 6.92969C13.1901 6.4349 13.4245 6.00521 13.7266 5.64062C14.0286 5.27604 14.388 4.99479 14.8047 4.79688C15.2266 4.59375 15.6927 4.49219 16.2031 4.49219C16.6198 4.49219 16.9948 4.54948 17.3281 4.66406C17.6615 4.77344 17.9453 4.95052 18.1797 5.19531C18.4193 5.4401 18.6016 5.75781 18.7266 6.14844C18.8516 6.53385 18.9141 7.00521 18.9141 7.5625V13.1016H17.4609V7.54688C17.4609 7.10417 17.3958 6.75 17.2656 6.48438C17.1354 6.21354 16.9453 6.01823 16.6953 5.89844C16.4453 5.77344 16.138 5.71094 15.7734 5.71094C15.4141 5.71094 15.0859 5.78646 14.7891 5.9375C14.4974 6.08854 14.2448 6.29688 14.0312 6.5625C13.8229 6.82812 13.6589 7.13281 13.5391 7.47656C13.4245 7.8151 13.3672 8.17448 13.3672 8.55469ZM26.0625 11.6562V7.30469C26.0625 6.97135 25.9948 6.68229 25.8594 6.4375C25.7292 6.1875 25.5312 5.99479 25.2656 5.85938C25 5.72396 24.6719 5.65625 24.2812 5.65625C23.9167 5.65625 23.5964 5.71875 23.3203 5.84375C23.0495 5.96875 22.8359 6.13281 22.6797 6.33594C22.5286 6.53906 22.4531 6.75781 22.4531 6.99219H21.0078C21.0078 6.6901 21.0859 6.39062 21.2422 6.09375C21.3984 5.79688 21.6224 5.52865 21.9141 5.28906C22.2109 5.04427 22.5651 4.85156 22.9766 4.71094C23.3932 4.5651 23.8568 4.49219 24.3672 4.49219C24.9818 4.49219 25.5234 4.59635 25.9922 4.80469C26.4661 5.01302 26.8359 5.32812 27.1016 5.75C27.3724 6.16667 27.5078 6.6901 27.5078 7.32031V11.2578C27.5078 11.5391 27.5312 11.8385 27.5781 12.1562C27.6302 12.474 27.7057 12.7474 27.8047 12.9766V13.1016H26.2969C26.224 12.9349 26.1667 12.7135 26.125 12.4375C26.0833 12.1562 26.0625 11.8958 26.0625 11.6562ZM26.3125 7.97656L26.3281 8.99219H24.8672C24.4557 8.99219 24.0885 9.02604 23.7656 9.09375C23.4427 9.15625 23.1719 9.2526 22.9531 9.38281C22.7344 9.51302 22.5677 9.67708 22.4531 9.875C22.3385 10.0677 22.2812 10.2943 22.2812 10.5547C22.2812 10.8203 22.3411 11.0625 22.4609 11.2812C22.5807 11.5 22.7604 11.6745 23 11.8047C23.2448 11.9297 23.5443 11.9922 23.8984 11.9922C24.3411 11.9922 24.7318 11.8984 25.0703 11.7109C25.4089 11.5234 25.6771 11.2943 25.875 11.0234C26.0781 10.7526 26.1875 10.4896 26.2031 10.2344L26.8203 10.9297C26.7839 11.1484 26.6849 11.3906 26.5234 11.6562C26.362 11.9219 26.1458 12.1771 25.875 12.4219C25.6094 12.6615 25.2917 12.862 24.9219 13.0234C24.5573 13.1797 24.1458 13.2578 23.6875 13.2578C23.1146 13.2578 22.612 13.1458 22.1797 12.9219C21.7526 12.6979 21.4193 12.3984 21.1797 12.0234C20.9453 11.6432 20.8281 11.2188 20.8281 10.75C20.8281 10.2969 20.9167 9.89844 21.0938 9.55469C21.2708 9.20573 21.526 8.91667 21.8594 8.6875C22.1927 8.45312 22.5938 8.27604 23.0625 8.15625C23.5312 8.03646 24.0547 7.97656 24.6328 7.97656H26.3125ZM24.9609 1.10156L26.8984 3.23438V3.3125H25.6953L24.5234 1.99219L23.3594 3.3125H22.1719V3.22656L24.0859 1.10156H24.9609ZM23 15.0234C23 14.7891 23.0703 14.5911 23.2109 14.4297C23.3568 14.2682 23.5703 14.1875 23.8516 14.1875C24.1276 14.1875 24.3385 14.2682 24.4844 14.4297C24.6354 14.5911 24.7109 14.7891 24.7109 15.0234C24.7109 15.2474 24.6354 15.4375 24.4844 15.5938C24.3385 15.7552 24.1276 15.8359 23.8516 15.8359C23.5703 15.8359 23.3568 15.7552 23.2109 15.5938C23.0703 15.4375 23 15.2474 23 15.0234ZM31.2266 6.45312V13.1016H29.7812V4.64844H31.1484L31.2266 6.45312ZM30.8828 8.55469L30.2812 8.53125C30.2865 7.95312 30.3724 7.41927 30.5391 6.92969C30.7057 6.4349 30.9401 6.00521 31.2422 5.64062C31.5443 5.27604 31.9036 4.99479 32.3203 4.79688C32.7422 4.59375 33.2083 4.49219 33.7188 4.49219C34.1354 4.49219 34.5104 4.54948 34.8438 4.66406C35.1771 4.77344 35.4609 4.95052 35.6953 5.19531C35.9349 5.4401 36.1172 5.75781 36.2422 6.14844C36.3672 6.53385 36.4297 7.00521 36.4297 7.5625V13.1016H34.9766V7.54688C34.9766 7.10417 34.9115 6.75 34.7812 6.48438C34.651 6.21354 34.4609 6.01823 34.2109 5.89844C33.9609 5.77344 33.6536 5.71094 33.2891 5.71094C32.9297 5.71094 32.6016 5.78646 32.3047 5.9375C32.013 6.08854 31.7604 6.29688 31.5469 6.5625C31.3385 6.82812 31.1745 7.13281 31.0547 7.47656C30.9401 7.8151 30.8828 8.17448 30.8828 8.55469ZM46.1328 4.64844V5.75781H41.5625V4.64844H46.1328ZM43.1094 2.59375H44.5547V11.0078C44.5547 11.2943 44.599 11.5104 44.6875 11.6562C44.776 11.8021 44.8906 11.8984 45.0312 11.9453C45.1719 11.9922 45.3229 12.0156 45.4844 12.0156C45.6042 12.0156 45.7292 12.0052 45.8594 11.9844C45.9948 11.9583 46.0964 11.9375 46.1641 11.9219L46.1719 13.1016C46.0573 13.138 45.9062 13.1719 45.7188 13.2031C45.5365 13.2396 45.3151 13.2578 45.0547 13.2578C44.7005 13.2578 44.375 13.1875 44.0781 13.0469C43.7812 12.9062 43.5443 12.6719 43.3672 12.3438C43.1953 12.0104 43.1094 11.5625 43.1094 11V2.59375ZM49.2734 1.10156V13.1016H47.8281V1.10156H49.2734ZM48.9297 8.55469L48.3281 8.53125C48.3333 7.95312 48.4193 7.41927 48.5859 6.92969C48.7526 6.4349 48.987 6.00521 49.2891 5.64062C49.5911 5.27604 49.9505 4.99479 50.3672 4.79688C50.7891 4.59375 51.2552 4.49219 51.7656 4.49219C52.1823 4.49219 52.5573 4.54948 52.8906 4.66406C53.224 4.77344 53.5078 4.95052 53.7422 5.19531C53.9818 5.4401 54.1641 5.75781 54.2891 6.14844C54.4141 6.53385 54.4766 7.00521 54.4766 7.5625V13.1016H53.0234V7.54688C53.0234 7.10417 52.9583 6.75 52.8281 6.48438C52.6979 6.21354 52.5078 6.01823 52.2578 5.89844C52.0078 5.77344 51.7005 5.71094 51.3359 5.71094C50.9766 5.71094 50.6484 5.78646 50.3516 5.9375C50.0599 6.08854 49.8073 6.29688 49.5938 6.5625C49.3854 6.82812 49.2214 7.13281 49.1016 7.47656C48.987 7.8151 48.9297 8.17448 48.9297 8.55469ZM56.2578 8.96875V8.78906C56.2578 8.17969 56.3464 7.61458 56.5234 7.09375C56.7005 6.56771 56.9557 6.11198 57.2891 5.72656C57.6224 5.33594 58.026 5.03385 58.5 4.82031C58.974 4.60156 59.5052 4.49219 60.0938 4.49219C60.6875 4.49219 61.2214 4.60156 61.6953 4.82031C62.1745 5.03385 62.5807 5.33594 62.9141 5.72656C63.2526 6.11198 63.5104 6.56771 63.6875 7.09375C63.8646 7.61458 63.9531 8.17969 63.9531 8.78906V8.96875C63.9531 9.57812 63.8646 10.1432 63.6875 10.6641C63.5104 11.1849 63.2526 11.6406 62.9141 12.0312C62.5807 12.4167 62.1771 12.7188 61.7031 12.9375C61.2344 13.151 60.7031 13.2578 60.1094 13.2578C59.5156 13.2578 58.9818 13.151 58.5078 12.9375C58.0339 12.7188 57.6276 12.4167 57.2891 12.0312C56.9557 11.6406 56.7005 11.1849 56.5234 10.6641C56.3464 10.1432 56.2578 9.57812 56.2578 8.96875ZM57.7031 8.78906V8.96875C57.7031 9.39062 57.7526 9.78906 57.8516 10.1641C57.9505 10.5339 58.099 10.862 58.2969 11.1484C58.5 11.4349 58.7526 11.6615 59.0547 11.8281C59.3568 11.9896 59.7083 12.0703 60.1094 12.0703C60.5052 12.0703 60.8516 11.9896 61.1484 11.8281C61.4505 11.6615 61.7005 11.4349 61.8984 11.1484C62.0964 10.862 62.2448 10.5339 62.3438 10.1641C62.4479 9.78906 62.5 9.39062 62.5 8.96875V8.78906C62.5 8.3724 62.4479 7.97917 62.3438 7.60938C62.2448 7.23438 62.0938 6.90365 61.8906 6.61719C61.6927 6.32552 61.4427 6.09635 61.1406 5.92969C60.8438 5.76302 60.4948 5.67969 60.0938 5.67969C59.6979 5.67969 59.349 5.76302 59.0469 5.92969C58.75 6.09635 58.5 6.32552 58.2969 6.61719C58.099 6.90365 57.9505 7.23438 57.8516 7.60938C57.7526 7.97917 57.7031 8.3724 57.7031 8.78906ZM60.4688 1.10156L62.4062 3.23438V3.3125H61.2031L60.0312 1.99219L58.8672 3.3125H57.6797V3.22656L59.5938 1.10156H60.4688ZM67.2109 6.45312V13.1016H65.7656V4.64844H67.1328L67.2109 6.45312ZM66.8672 8.55469L66.2656 8.53125C66.2708 7.95312 66.3568 7.41927 66.5234 6.92969C66.6901 6.4349 66.9245 6.00521 67.2266 5.64062C67.5286 5.27604 67.888 4.99479 68.3047 4.79688C68.7266 4.59375 69.1927 4.49219 69.7031 4.49219C70.1198 4.49219 70.4948 4.54948 70.8281 4.66406C71.1615 4.77344 71.4453 4.95052 71.6797 5.19531C71.9193 5.4401 72.1016 5.75781 72.2266 6.14844C72.3516 6.53385 72.4141 7.00521 72.4141 7.5625V13.1016H70.9609V7.54688C70.9609 7.10417 70.8958 6.75 70.7656 6.48438C70.6354 6.21354 70.4453 6.01823 70.1953 5.89844C69.9453 5.77344 69.638 5.71094 69.2734 5.71094C68.9141 5.71094 68.5859 5.78646 68.2891 5.9375C67.9974 6.08854 67.7448 6.29688 67.5312 6.5625C67.3229 6.82812 67.1589 7.13281 67.0391 7.47656C66.9245 7.8151 66.8672 8.17448 66.8672 8.55469ZM80.0859 4.64844H81.3984V12.9219C81.3984 13.6667 81.2474 14.3021 80.9453 14.8281C80.6432 15.3542 80.2214 15.7526 79.6797 16.0234C79.1432 16.2995 78.5234 16.4375 77.8203 16.4375C77.5286 16.4375 77.1849 16.3906 76.7891 16.2969C76.3984 16.2083 76.013 16.0547 75.6328 15.8359C75.2578 15.6224 74.9427 15.3333 74.6875 14.9688L75.4453 14.1094C75.7995 14.5365 76.1693 14.8333 76.5547 15C76.9453 15.1667 77.3307 15.25 77.7109 15.25C78.1693 15.25 78.5651 15.1641 78.8984 14.9922C79.2318 14.8203 79.4896 14.5651 79.6719 14.2266C79.8594 13.8932 79.9531 13.4818 79.9531 12.9922V6.50781L80.0859 4.64844ZM74.2656 8.96875V8.80469C74.2656 8.15885 74.3411 7.57292 74.4922 7.04688C74.6484 6.51562 74.8698 6.0599 75.1562 5.67969C75.4479 5.29948 75.7995 5.00781 76.2109 4.80469C76.6224 4.59635 77.0859 4.49219 77.6016 4.49219C78.1328 4.49219 78.5964 4.58594 78.9922 4.77344C79.3932 4.95573 79.7318 5.22396 80.0078 5.57812C80.2891 5.92708 80.5104 6.34896 80.6719 6.84375C80.8333 7.33854 80.9453 7.89844 81.0078 8.52344V9.24219C80.9505 9.86198 80.8385 10.4193 80.6719 10.9141C80.5104 11.4089 80.2891 11.8307 80.0078 12.1797C79.7318 12.5286 79.3932 12.7969 78.9922 12.9844C78.5911 13.1667 78.1224 13.2578 77.5859 13.2578C77.0807 13.2578 76.6224 13.151 76.2109 12.9375C75.8047 12.724 75.4557 12.4245 75.1641 12.0391C74.8724 11.6536 74.6484 11.2005 74.4922 10.6797C74.3411 10.1536 74.2656 9.58333 74.2656 8.96875ZM75.7109 8.80469V8.96875C75.7109 9.39062 75.7526 9.78646 75.8359 10.1562C75.9245 10.526 76.0573 10.8516 76.2344 11.1328C76.4167 11.4141 76.6484 11.6354 76.9297 11.7969C77.2109 11.9531 77.5469 12.0312 77.9375 12.0312C78.4167 12.0312 78.8125 11.9297 79.125 11.7266C79.4375 11.5234 79.6849 11.2552 79.8672 10.9219C80.0547 10.5885 80.2005 10.2266 80.3047 9.83594V7.95312C80.2474 7.66667 80.1589 7.39062 80.0391 7.125C79.9245 6.85417 79.7734 6.61458 79.5859 6.40625C79.4036 6.19271 79.1771 6.02344 78.9062 5.89844C78.6354 5.77344 78.3177 5.71094 77.9531 5.71094C77.5573 5.71094 77.2161 5.79427 76.9297 5.96094C76.6484 6.1224 76.4167 6.34635 76.2344 6.63281C76.0573 6.91406 75.9245 7.24219 75.8359 7.61719C75.7526 7.98698 75.7109 8.38281 75.7109 8.80469ZM91.1016 4.64844V5.75781H86.5312V4.64844H91.1016ZM88.0781 2.59375H89.5234V11.0078C89.5234 11.2943 89.5677 11.5104 89.6562 11.6562C89.7448 11.8021 89.8594 11.8984 90 11.9453C90.1406 11.9922 90.2917 12.0156 90.4531 12.0156C90.5729 12.0156 90.6979 12.0052 90.8281 11.9844C90.9635 11.9583 91.0651 11.9375 91.1328 11.9219L91.1406 13.1016C91.026 13.138 90.875 13.1719 90.6875 13.2031C90.5052 13.2396 90.2839 13.2578 90.0234 13.2578C89.6693 13.2578 89.3438 13.1875 89.0469 13.0469C88.75 12.9062 88.513 12.6719 88.3359 12.3438C88.1641 12.0104 88.0781 11.5625 88.0781 11V2.59375ZM94.3672 4.64844V13.1016H92.9141V4.64844H94.3672ZM92.8047 2.40625C92.8047 2.17188 92.875 1.97396 93.0156 1.8125C93.1615 1.65104 93.375 1.57031 93.6562 1.57031C93.9323 1.57031 94.1432 1.65104 94.2891 1.8125C94.4401 1.97396 94.5156 2.17188 94.5156 2.40625C94.5156 2.63021 94.4401 2.82292 94.2891 2.98438C94.1432 3.14062 93.9323 3.21875 93.6562 3.21875C93.375 3.21875 93.1615 3.14062 93.0156 2.98438C92.875 2.82292 92.8047 2.63021 92.8047 2.40625ZM98.1328 6.45312V13.1016H96.6875V4.64844H98.0547L98.1328 6.45312ZM97.7891 8.55469L97.1875 8.53125C97.1927 7.95312 97.2786 7.41927 97.4453 6.92969C97.612 6.4349 97.8464 6.00521 98.1484 5.64062C98.4505 5.27604 98.8099 4.99479 99.2266 4.79688C99.6484 4.59375 100.115 4.49219 100.625 4.49219C101.042 4.49219 101.417 4.54948 101.75 4.66406C102.083 4.77344 102.367 4.95052 102.602 5.19531C102.841 5.4401 103.023 5.75781 103.148 6.14844C103.273 6.53385 103.336 7.00521 103.336 7.5625V13.1016H101.883V7.54688C101.883 7.10417 101.818 6.75 101.688 6.48438C101.557 6.21354 101.367 6.01823 101.117 5.89844C100.867 5.77344 100.56 5.71094 100.195 5.71094C99.8359 5.71094 99.5078 5.78646 99.2109 5.9375C98.9193 6.08854 98.6667 6.29688 98.4531 6.5625C98.2448 6.82812 98.0807 7.13281 97.9609 7.47656C97.8464 7.8151 97.7891 8.17448 97.7891 8.55469ZM110.953 1.10156V13.1016H109.5V1.10156H110.953ZM116.117 4.64844L112.43 8.59375L110.367 10.7344L110.25 9.19531L111.727 7.42969L114.352 4.64844H116.117ZM114.797 13.1016L111.781 9.07031L112.531 7.78125L116.5 13.1016H114.797ZM119.055 1.10156V13.1016H117.609V1.10156H119.055ZM118.711 8.55469L118.109 8.53125C118.115 7.95312 118.201 7.41927 118.367 6.92969C118.534 6.4349 118.768 6.00521 119.07 5.64062C119.372 5.27604 119.732 4.99479 120.148 4.79688C120.57 4.59375 121.036 4.49219 121.547 4.49219C121.964 4.49219 122.339 4.54948 122.672 4.66406C123.005 4.77344 123.289 4.95052 123.523 5.19531C123.763 5.4401 123.945 5.75781 124.07 6.14844C124.195 6.53385 124.258 7.00521 124.258 7.5625V13.1016H122.805V7.54688C122.805 7.10417 122.74 6.75 122.609 6.48438C122.479 6.21354 122.289 6.01823 122.039 5.89844C121.789 5.77344 121.482 5.71094 121.117 5.71094C120.758 5.71094 120.43 5.78646 120.133 5.9375C119.841 6.08854 119.589 6.29688 119.375 6.5625C119.167 6.82812 119.003 7.13281 118.883 7.47656C118.768 7.8151 118.711 8.17448 118.711 8.55469ZM131.594 11.1484V4.64844H133.047V13.1016H131.664L131.594 11.1484ZM131.867 9.36719L132.469 9.35156C132.469 9.91406 132.409 10.4349 132.289 10.9141C132.174 11.388 131.987 11.7995 131.727 12.1484C131.466 12.4974 131.125 12.7708 130.703 12.9688C130.281 13.1615 129.768 13.2578 129.164 13.2578C128.753 13.2578 128.375 13.1979 128.031 13.0781C127.693 12.9583 127.401 12.7734 127.156 12.5234C126.911 12.2734 126.721 11.9479 126.586 11.5469C126.456 11.1458 126.391 10.6641 126.391 10.1016V4.64844H127.836V10.1172C127.836 10.4974 127.878 10.8125 127.961 11.0625C128.049 11.3073 128.167 11.5026 128.312 11.6484C128.464 11.7891 128.63 11.888 128.812 11.9453C129 12.0026 129.193 12.0312 129.391 12.0312C130.005 12.0312 130.492 11.9141 130.852 11.6797C131.211 11.4401 131.469 11.1198 131.625 10.7188C131.786 10.3125 131.867 9.86198 131.867 9.36719ZM137.625 12.2266L139.977 4.64844H141.523L138.133 14.4062C138.055 14.6146 137.951 14.8385 137.82 15.0781C137.695 15.3229 137.534 15.5547 137.336 15.7734C137.138 15.9922 136.898 16.1693 136.617 16.3047C136.341 16.4453 136.01 16.5156 135.625 16.5156C135.51 16.5156 135.365 16.5 135.188 16.4688C135.01 16.4375 134.885 16.4115 134.812 16.3906L134.805 15.2188C134.846 15.224 134.911 15.2292 135 15.2344C135.094 15.2448 135.159 15.25 135.195 15.25C135.523 15.25 135.802 15.2057 136.031 15.1172C136.26 15.0339 136.453 14.8906 136.609 14.6875C136.771 14.4896 136.909 14.2161 137.023 13.8672L137.625 12.2266ZM135.898 4.64844L138.094 11.2109L138.469 12.7344L137.43 13.2656L134.32 4.64844H135.898ZM146.242 13.2578C145.654 13.2578 145.12 13.1589 144.641 12.9609C144.167 12.7578 143.758 12.474 143.414 12.1094C143.076 11.7448 142.815 11.3125 142.633 10.8125C142.451 10.3125 142.359 9.76562 142.359 9.17188V8.84375C142.359 8.15625 142.461 7.54427 142.664 7.00781C142.867 6.46615 143.143 6.00781 143.492 5.63281C143.841 5.25781 144.237 4.97396 144.68 4.78125C145.122 4.58854 145.581 4.49219 146.055 4.49219C146.659 4.49219 147.18 4.59635 147.617 4.80469C148.06 5.01302 148.422 5.30469 148.703 5.67969C148.984 6.04948 149.193 6.48698 149.328 6.99219C149.464 7.49219 149.531 8.03906 149.531 8.63281V9.28125H143.219V8.10156H148.086V7.99219C148.065 7.61719 147.987 7.2526 147.852 6.89844C147.721 6.54427 147.513 6.2526 147.227 6.02344C146.94 5.79427 146.549 5.67969 146.055 5.67969C145.727 5.67969 145.424 5.75 145.148 5.89062C144.872 6.02604 144.635 6.22917 144.438 6.5C144.24 6.77083 144.086 7.10156 143.977 7.49219C143.867 7.88281 143.812 8.33333 143.812 8.84375V9.17188C143.812 9.57292 143.867 9.95052 143.977 10.3047C144.091 10.6536 144.255 10.9609 144.469 11.2266C144.688 11.4922 144.951 11.7005 145.258 11.8516C145.57 12.0026 145.924 12.0781 146.32 12.0781C146.831 12.0781 147.263 11.974 147.617 11.7656C147.971 11.5573 148.281 11.2786 148.547 10.9297L149.422 11.625C149.24 11.901 149.008 12.1641 148.727 12.4141C148.445 12.6641 148.099 12.8672 147.688 13.0234C147.281 13.1797 146.799 13.2578 146.242 13.2578ZM143.18 3.39844L145.453 1.35156H146.641L148.914 3.39844H147.375L146.047 2.16406L144.719 3.39844H143.18ZM148.336 2.01562L149.438 0H151L149.43 2.01562H148.336ZM152.664 6.45312V13.1016H151.219V4.64844H152.586L152.664 6.45312ZM152.32 8.55469L151.719 8.53125C151.724 7.95312 151.81 7.41927 151.977 6.92969C152.143 6.4349 152.378 6.00521 152.68 5.64062C152.982 5.27604 153.341 4.99479 153.758 4.79688C154.18 4.59375 154.646 4.49219 155.156 4.49219C155.573 4.49219 155.948 4.54948 156.281 4.66406C156.615 4.77344 156.898 4.95052 157.133 5.19531C157.372 5.4401 157.555 5.75781 157.68 6.14844C157.805 6.53385 157.867 7.00521 157.867 7.5625V13.1016H156.414V7.54688C156.414 7.10417 156.349 6.75 156.219 6.48438C156.089 6.21354 155.898 6.01823 155.648 5.89844C155.398 5.77344 155.091 5.71094 154.727 5.71094C154.367 5.71094 154.039 5.78646 153.742 5.9375C153.451 6.08854 153.198 6.29688 152.984 6.5625C152.776 6.82812 152.612 7.13281 152.492 7.47656C152.378 7.8151 152.32 8.17448 152.32 8.55469ZM165.469 6.32812V13.1016H164.016V4.64844H165.391L165.469 6.32812ZM165.172 8.55469L164.5 8.53125C164.505 7.95312 164.581 7.41927 164.727 6.92969C164.872 6.4349 165.089 6.00521 165.375 5.64062C165.661 5.27604 166.018 4.99479 166.445 4.79688C166.872 4.59375 167.367 4.49219 167.93 4.49219C168.326 4.49219 168.69 4.54948 169.023 4.66406C169.357 4.77344 169.646 4.94792 169.891 5.1875C170.135 5.42708 170.326 5.73438 170.461 6.10938C170.596 6.48438 170.664 6.9375 170.664 7.46875V13.1016H169.219V7.53906C169.219 7.09635 169.143 6.74219 168.992 6.47656C168.846 6.21094 168.638 6.01823 168.367 5.89844C168.096 5.77344 167.779 5.71094 167.414 5.71094C166.987 5.71094 166.63 5.78646 166.344 5.9375C166.057 6.08854 165.828 6.29688 165.656 6.5625C165.484 6.82812 165.359 7.13281 165.281 7.47656C165.208 7.8151 165.172 8.17448 165.172 8.55469ZM170.648 7.75781L169.68 8.05469C169.685 7.59115 169.76 7.14583 169.906 6.71875C170.057 6.29167 170.273 5.91146 170.555 5.57812C170.841 5.24479 171.193 4.98177 171.609 4.78906C172.026 4.59115 172.503 4.49219 173.039 4.49219C173.492 4.49219 173.893 4.55208 174.242 4.67188C174.596 4.79167 174.893 4.97656 175.133 5.22656C175.378 5.47135 175.562 5.78646 175.688 6.17188C175.812 6.55729 175.875 7.01562 175.875 7.54688V13.1016H174.422V7.53125C174.422 7.05729 174.346 6.6901 174.195 6.42969C174.049 6.16406 173.841 5.97917 173.57 5.875C173.305 5.76562 172.987 5.71094 172.617 5.71094C172.299 5.71094 172.018 5.76562 171.773 5.875C171.529 5.98438 171.323 6.13542 171.156 6.32812C170.99 6.51562 170.862 6.73177 170.773 6.97656C170.69 7.22135 170.648 7.48177 170.648 7.75781ZM183.047 11.6562V7.30469C183.047 6.97135 182.979 6.68229 182.844 6.4375C182.714 6.1875 182.516 5.99479 182.25 5.85938C181.984 5.72396 181.656 5.65625 181.266 5.65625C180.901 5.65625 180.581 5.71875 180.305 5.84375C180.034 5.96875 179.82 6.13281 179.664 6.33594C179.513 6.53906 179.438 6.75781 179.438 6.99219H177.992C177.992 6.6901 178.07 6.39062 178.227 6.09375C178.383 5.79688 178.607 5.52865 178.898 5.28906C179.195 5.04427 179.549 4.85156 179.961 4.71094C180.378 4.5651 180.841 4.49219 181.352 4.49219C181.966 4.49219 182.508 4.59635 182.977 4.80469C183.451 5.01302 183.82 5.32812 184.086 5.75C184.357 6.16667 184.492 6.6901 184.492 7.32031V11.2578C184.492 11.5391 184.516 11.8385 184.562 12.1562C184.615 12.474 184.69 12.7474 184.789 12.9766V13.1016H183.281C183.208 12.9349 183.151 12.7135 183.109 12.4375C183.068 12.1562 183.047 11.8958 183.047 11.6562ZM183.297 7.97656L183.312 8.99219H181.852C181.44 8.99219 181.073 9.02604 180.75 9.09375C180.427 9.15625 180.156 9.2526 179.938 9.38281C179.719 9.51302 179.552 9.67708 179.438 9.875C179.323 10.0677 179.266 10.2943 179.266 10.5547C179.266 10.8203 179.326 11.0625 179.445 11.2812C179.565 11.5 179.745 11.6745 179.984 11.8047C180.229 11.9297 180.529 11.9922 180.883 11.9922C181.326 11.9922 181.716 11.8984 182.055 11.7109C182.393 11.5234 182.661 11.2943 182.859 11.0234C183.062 10.7526 183.172 10.4896 183.188 10.2344L183.805 10.9297C183.768 11.1484 183.669 11.3906 183.508 11.6562C183.346 11.9219 183.13 12.1771 182.859 12.4219C182.594 12.6615 182.276 12.862 181.906 13.0234C181.542 13.1797 181.13 13.2578 180.672 13.2578C180.099 13.2578 179.596 13.1458 179.164 12.9219C178.737 12.6979 178.404 12.3984 178.164 12.0234C177.93 11.6432 177.812 11.2188 177.812 10.75C177.812 10.2969 177.901 9.89844 178.078 9.55469C178.255 9.20573 178.51 8.91667 178.844 8.6875C179.177 8.45312 179.578 8.27604 180.047 8.15625C180.516 8.03646 181.039 7.97656 181.617 7.97656H183.297ZM183.305 1.25781L184.281 1.34375C184.281 1.72396 184.206 2.05729 184.055 2.34375C183.904 2.63021 183.701 2.85156 183.445 3.00781C183.195 3.16406 182.911 3.24219 182.594 3.24219C182.328 3.24219 182.109 3.20573 181.938 3.13281C181.766 3.05469 181.612 2.96875 181.477 2.875C181.341 2.77604 181.198 2.6901 181.047 2.61719C180.901 2.53906 180.719 2.5 180.5 2.5C180.281 2.5 180.096 2.58333 179.945 2.75C179.799 2.91667 179.727 3.1224 179.727 3.36719L178.75 3.32031C178.75 2.9401 178.823 2.60677 178.969 2.32031C179.12 2.02865 179.323 1.80208 179.578 1.64062C179.833 1.47396 180.117 1.39062 180.43 1.39062C180.654 1.39062 180.849 1.42969 181.016 1.50781C181.188 1.58073 181.349 1.66667 181.5 1.76562C181.651 1.85938 181.807 1.94531 181.969 2.02344C182.13 2.09635 182.315 2.13281 182.523 2.13281C182.742 2.13281 182.927 2.04948 183.078 1.88281C183.229 1.71094 183.305 1.5026 183.305 1.25781ZM188.336 4.64844V13.1016H186.883V4.64844H188.336ZM186.773 2.40625C186.773 2.17188 186.844 1.97396 186.984 1.8125C187.13 1.65104 187.344 1.57031 187.625 1.57031C187.901 1.57031 188.112 1.65104 188.258 1.8125C188.409 1.97396 188.484 2.17188 188.484 2.40625C188.484 2.63021 188.409 2.82292 188.258 2.98438C188.112 3.14062 187.901 3.21875 187.625 3.21875C187.344 3.21875 187.13 3.14062 186.984 2.98438C186.844 2.82292 186.773 2.63021 186.773 2.40625ZM197.195 11.7969L199.508 4.64844H200.984L197.945 13.1016H196.977L197.195 11.7969ZM195.266 4.64844L197.648 11.8359L197.812 13.1016H196.844L193.781 4.64844H195.266ZM207.25 11.6562V7.30469C207.25 6.97135 207.182 6.68229 207.047 6.4375C206.917 6.1875 206.719 5.99479 206.453 5.85938C206.188 5.72396 205.859 5.65625 205.469 5.65625C205.104 5.65625 204.784 5.71875 204.508 5.84375C204.237 5.96875 204.023 6.13281 203.867 6.33594C203.716 6.53906 203.641 6.75781 203.641 6.99219H202.195C202.195 6.6901 202.273 6.39062 202.43 6.09375C202.586 5.79688 202.81 5.52865 203.102 5.28906C203.398 5.04427 203.753 4.85156 204.164 4.71094C204.581 4.5651 205.044 4.49219 205.555 4.49219C206.169 4.49219 206.711 4.59635 207.18 4.80469C207.654 5.01302 208.023 5.32812 208.289 5.75C208.56 6.16667 208.695 6.6901 208.695 7.32031V11.2578C208.695 11.5391 208.719 11.8385 208.766 12.1562C208.818 12.474 208.893 12.7474 208.992 12.9766V13.1016H207.484C207.411 12.9349 207.354 12.7135 207.312 12.4375C207.271 12.1562 207.25 11.8958 207.25 11.6562ZM207.5 7.97656L207.516 8.99219H206.055C205.643 8.99219 205.276 9.02604 204.953 9.09375C204.63 9.15625 204.359 9.2526 204.141 9.38281C203.922 9.51302 203.755 9.67708 203.641 9.875C203.526 10.0677 203.469 10.2943 203.469 10.5547C203.469 10.8203 203.529 11.0625 203.648 11.2812C203.768 11.5 203.948 11.6745 204.188 11.8047C204.432 11.9297 204.732 11.9922 205.086 11.9922C205.529 11.9922 205.919 11.8984 206.258 11.7109C206.596 11.5234 206.865 11.2943 207.062 11.0234C207.266 10.7526 207.375 10.4896 207.391 10.2344L208.008 10.9297C207.971 11.1484 207.872 11.3906 207.711 11.6562C207.549 11.9219 207.333 12.1771 207.062 12.4219C206.797 12.6615 206.479 12.862 206.109 13.0234C205.745 13.1797 205.333 13.2578 204.875 13.2578C204.302 13.2578 203.799 13.1458 203.367 12.9219C202.94 12.6979 202.607 12.3984 202.367 12.0234C202.133 11.6432 202.016 11.2188 202.016 10.75C202.016 10.2969 202.104 9.89844 202.281 9.55469C202.458 9.20573 202.714 8.91667 203.047 8.6875C203.38 8.45312 203.781 8.27604 204.25 8.15625C204.719 8.03646 205.242 7.97656 205.82 7.97656H207.5ZM205.023 1.10156L206.531 3.39844H205.289L203.273 1.10156H205.023ZM216.375 6.32812V13.1016H214.922V4.64844H216.297L216.375 6.32812ZM216.078 8.55469L215.406 8.53125C215.411 7.95312 215.487 7.41927 215.633 6.92969C215.779 6.4349 215.995 6.00521 216.281 5.64062C216.568 5.27604 216.924 4.99479 217.352 4.79688C217.779 4.59375 218.273 4.49219 218.836 4.49219C219.232 4.49219 219.596 4.54948 219.93 4.66406C220.263 4.77344 220.552 4.94792 220.797 5.1875C221.042 5.42708 221.232 5.73438 221.367 6.10938C221.503 6.48438 221.57 6.9375 221.57 7.46875V13.1016H220.125V7.53906C220.125 7.09635 220.049 6.74219 219.898 6.47656C219.753 6.21094 219.544 6.01823 219.273 5.89844C219.003 5.77344 218.685 5.71094 218.32 5.71094C217.893 5.71094 217.536 5.78646 217.25 5.9375C216.964 6.08854 216.734 6.29688 216.562 6.5625C216.391 6.82812 216.266 7.13281 216.188 7.47656C216.115 7.8151 216.078 8.17448 216.078 8.55469ZM221.555 7.75781L220.586 8.05469C220.591 7.59115 220.667 7.14583 220.812 6.71875C220.964 6.29167 221.18 5.91146 221.461 5.57812C221.747 5.24479 222.099 4.98177 222.516 4.78906C222.932 4.59115 223.409 4.49219 223.945 4.49219C224.398 4.49219 224.799 4.55208 225.148 4.67188C225.503 4.79167 225.799 4.97656 226.039 5.22656C226.284 5.47135 226.469 5.78646 226.594 6.17188C226.719 6.55729 226.781 7.01562 226.781 7.54688V13.1016H225.328V7.53125C225.328 7.05729 225.253 6.6901 225.102 6.42969C224.956 6.16406 224.747 5.97917 224.477 5.875C224.211 5.76562 223.893 5.71094 223.523 5.71094C223.206 5.71094 222.924 5.76562 222.68 5.875C222.435 5.98438 222.229 6.13542 222.062 6.32812C221.896 6.51562 221.768 6.73177 221.68 6.97656C221.596 7.22135 221.555 7.48177 221.555 7.75781ZM232.477 13.2578C231.888 13.2578 231.354 13.1589 230.875 12.9609C230.401 12.7578 229.992 12.474 229.648 12.1094C229.31 11.7448 229.049 11.3125 228.867 10.8125C228.685 10.3125 228.594 9.76562 228.594 9.17188V8.84375C228.594 8.15625 228.695 7.54427 228.898 7.00781C229.102 6.46615 229.378 6.00781 229.727 5.63281C230.076 5.25781 230.471 4.97396 230.914 4.78125C231.357 4.58854 231.815 4.49219 232.289 4.49219C232.893 4.49219 233.414 4.59635 233.852 4.80469C234.294 5.01302 234.656 5.30469 234.938 5.67969C235.219 6.04948 235.427 6.48698 235.562 6.99219C235.698 7.49219 235.766 8.03906 235.766 8.63281V9.28125H229.453V8.10156H234.32V7.99219C234.299 7.61719 234.221 7.2526 234.086 6.89844C233.956 6.54427 233.747 6.2526 233.461 6.02344C233.174 5.79427 232.784 5.67969 232.289 5.67969C231.961 5.67969 231.659 5.75 231.383 5.89062C231.107 6.02604 230.87 6.22917 230.672 6.5C230.474 6.77083 230.32 7.10156 230.211 7.49219C230.102 7.88281 230.047 8.33333 230.047 8.84375V9.17188C230.047 9.57292 230.102 9.95052 230.211 10.3047C230.326 10.6536 230.49 10.9609 230.703 11.2266C230.922 11.4922 231.185 11.7005 231.492 11.8516C231.805 12.0026 232.159 12.0781 232.555 12.0781C233.065 12.0781 233.497 11.974 233.852 11.7656C234.206 11.5573 234.516 11.2786 234.781 10.9297L235.656 11.625C235.474 11.901 235.242 12.1641 234.961 12.4141C234.68 12.6641 234.333 12.8672 233.922 13.0234C233.516 13.1797 233.034 13.2578 232.477 13.2578ZM231.406 15.0234C231.406 14.7891 231.477 14.5911 231.617 14.4297C231.763 14.2682 231.977 14.1875 232.258 14.1875C232.534 14.1875 232.745 14.2682 232.891 14.4297C233.042 14.5911 233.117 14.7891 233.117 15.0234C233.117 15.2474 233.042 15.4375 232.891 15.5938C232.745 15.7552 232.534 15.8359 232.258 15.8359C231.977 15.8359 231.763 15.7552 231.617 15.5938C231.477 15.4375 231.406 15.2474 231.406 15.0234ZM237.07 8.96875V8.78906C237.07 8.17969 237.159 7.61458 237.336 7.09375C237.513 6.56771 237.768 6.11198 238.102 5.72656C238.435 5.33594 238.839 5.03385 239.312 4.82031C239.786 4.60156 240.318 4.49219 240.906 4.49219C241.5 4.49219 242.034 4.60156 242.508 4.82031C242.987 5.03385 243.393 5.33594 243.727 5.72656C244.065 6.11198 244.323 6.56771 244.5 7.09375C244.677 7.61458 244.766 8.17969 244.766 8.78906V8.96875C244.766 9.57812 244.677 10.1432 244.5 10.6641C244.323 11.1849 244.065 11.6406 243.727 12.0312C243.393 12.4167 242.99 12.7188 242.516 12.9375C242.047 13.151 241.516 13.2578 240.922 13.2578C240.328 13.2578 239.794 13.151 239.32 12.9375C238.846 12.7188 238.44 12.4167 238.102 12.0312C237.768 11.6406 237.513 11.1849 237.336 10.6641C237.159 10.1432 237.07 9.57812 237.07 8.96875ZM238.516 8.78906V8.96875C238.516 9.39062 238.565 9.78906 238.664 10.1641C238.763 10.5339 238.911 10.862 239.109 11.1484C239.312 11.4349 239.565 11.6615 239.867 11.8281C240.169 11.9896 240.521 12.0703 240.922 12.0703C241.318 12.0703 241.664 11.9896 241.961 11.8281C242.263 11.6615 242.513 11.4349 242.711 11.1484C242.909 10.862 243.057 10.5339 243.156 10.1641C243.26 9.78906 243.312 9.39062 243.312 8.96875V8.78906C243.312 8.3724 243.26 7.97917 243.156 7.60938C243.057 7.23438 242.906 6.90365 242.703 6.61719C242.505 6.32552 242.255 6.09635 241.953 5.92969C241.656 5.76302 241.307 5.67969 240.906 5.67969C240.51 5.67969 240.161 5.76302 239.859 5.92969C239.562 6.09635 239.312 6.32552 239.109 6.61719C238.911 6.90365 238.763 7.23438 238.664 7.60938C238.565 7.97917 238.516 8.3724 238.516 8.78906ZM3.41406 35.7969L5.72656 28.6484H7.20312L4.16406 37.1016H3.19531L3.41406 35.7969ZM1.48438 28.6484L3.86719 35.8359L4.03125 37.1016H3.0625L0 28.6484H1.48438ZM13.4688 35.6562V31.3047C13.4688 30.9714 13.401 30.6823 13.2656 30.4375C13.1354 30.1875 12.9375 29.9948 12.6719 29.8594C12.4062 29.724 12.0781 29.6562 11.6875 29.6562C11.3229 29.6562 11.0026 29.7188 10.7266 29.8438C10.4557 29.9688 10.2422 30.1328 10.0859 30.3359C9.9349 30.5391 9.85938 30.7578 9.85938 30.9922H8.41406C8.41406 30.6901 8.49219 30.3906 8.64844 30.0938C8.80469 29.7969 9.02865 29.5286 9.32031 29.2891C9.61719 29.0443 9.97135 28.8516 10.3828 28.7109C10.7995 28.5651 11.263 28.4922 11.7734 28.4922C12.388 28.4922 12.9297 28.5964 13.3984 28.8047C13.8724 29.013 14.2422 29.3281 14.5078 29.75C14.7786 30.1667 14.9141 30.6901 14.9141 31.3203V35.2578C14.9141 35.5391 14.9375 35.8385 14.9844 36.1562C15.0365 36.474 15.112 36.7474 15.2109 36.9766V37.1016H13.7031C13.6302 36.9349 13.5729 36.7135 13.5312 36.4375C13.4896 36.1562 13.4688 35.8958 13.4688 35.6562ZM13.7188 31.9766L13.7344 32.9922H12.2734C11.862 32.9922 11.4948 33.026 11.1719 33.0938C10.849 33.1562 10.5781 33.2526 10.3594 33.3828C10.1406 33.513 9.97396 33.6771 9.85938 33.875C9.74479 34.0677 9.6875 34.2943 9.6875 34.5547C9.6875 34.8203 9.7474 35.0625 9.86719 35.2812C9.98698 35.5 10.1667 35.6745 10.4062 35.8047C10.651 35.9297 10.9505 35.9922 11.3047 35.9922C11.7474 35.9922 12.138 35.8984 12.4766 35.7109C12.8151 35.5234 13.0833 35.2943 13.2812 35.0234C13.4844 34.7526 13.5938 34.4896 13.6094 34.2344L14.2266 34.9297C14.1901 35.1484 14.0911 35.3906 13.9297 35.6562C13.7682 35.9219 13.5521 36.1771 13.2812 36.4219C13.0156 36.6615 12.6979 36.862 12.3281 37.0234C11.9635 37.1797 11.5521 37.2578 11.0938 37.2578C10.5208 37.2578 10.0182 37.1458 9.58594 36.9219C9.15885 36.6979 8.82552 36.3984 8.58594 36.0234C8.35156 35.6432 8.23438 35.2188 8.23438 34.75C8.23438 34.2969 8.32292 33.8984 8.5 33.5547C8.67708 33.2057 8.93229 32.9167 9.26562 32.6875C9.59896 32.4531 10 32.276 10.4688 32.1562C10.9375 32.0365 11.4609 31.9766 12.0391 31.9766H13.7188ZM13.0938 25.4219H14.2656C14.2656 25.8281 14.1719 26.1901 13.9844 26.5078C13.7969 26.8203 13.5286 27.0651 13.1797 27.2422C12.8307 27.4193 12.4167 27.5078 11.9375 27.5078C11.2135 27.5078 10.6406 27.3151 10.2188 26.9297C9.80208 26.5391 9.59375 26.0365 9.59375 25.4219H10.7656C10.7656 25.7292 10.8542 26 11.0312 26.2344C11.2083 26.4688 11.5104 26.5859 11.9375 26.5859C12.3542 26.5859 12.651 26.4688 12.8281 26.2344C13.0052 26 13.0938 25.7292 13.0938 25.4219ZM10.4062 39.0234C10.4062 38.7891 10.4766 38.5911 10.6172 38.4297C10.763 38.2682 10.9766 38.1875 11.2578 38.1875C11.5339 38.1875 11.7448 38.2682 11.8906 38.4297C12.0417 38.5911 12.1172 38.7891 12.1172 39.0234C12.1172 39.2474 12.0417 39.4375 11.8906 39.5938C11.7448 39.7552 11.5339 39.8359 11.2578 39.8359C10.9766 39.8359 10.763 39.7552 10.6172 39.5938C10.4766 39.4375 10.4062 39.2474 10.4062 39.0234ZM20.7266 28.6484V29.7578H16.1562V28.6484H20.7266ZM17.7031 26.5938H19.1484V35.0078C19.1484 35.2943 19.1927 35.5104 19.2812 35.6562C19.3698 35.8021 19.4844 35.8984 19.625 35.9453C19.7656 35.9922 19.9167 36.0156 20.0781 36.0156C20.1979 36.0156 20.3229 36.0052 20.4531 35.9844C20.5885 35.9583 20.6901 35.9375 20.7578 35.9219L20.7656 37.1016C20.651 37.138 20.5 37.1719 20.3125 37.2031C20.1302 37.2396 19.9089 37.2578 19.6484 37.2578C19.2943 37.2578 18.9688 37.1875 18.6719 37.0469C18.375 36.9062 18.138 36.6719 17.9609 36.3438C17.7891 36.0104 17.7031 35.5625 17.7031 35V26.5938ZM31.3125 34.8594C31.3125 34.651 31.2656 34.4583 31.1719 34.2812C31.0833 34.099 30.8984 33.9349 30.6172 33.7891C30.3411 33.638 29.9245 33.5078 29.3672 33.3984C28.8984 33.2995 28.474 33.1823 28.0938 33.0469C27.7188 32.9115 27.3984 32.7474 27.1328 32.5547C26.8724 32.362 26.6719 32.1354 26.5312 31.875C26.3906 31.6146 26.3203 31.3099 26.3203 30.9609C26.3203 30.6276 26.3932 30.3125 26.5391 30.0156C26.6901 29.7188 26.901 29.4557 27.1719 29.2266C27.4479 28.9974 27.7786 28.8177 28.1641 28.6875C28.5495 28.5573 28.9792 28.4922 29.4531 28.4922C30.1302 28.4922 30.7083 28.612 31.1875 28.8516C31.6667 29.0911 32.0339 29.4115 32.2891 29.8125C32.5443 30.2083 32.6719 30.6484 32.6719 31.1328H31.2266C31.2266 30.8984 31.1562 30.6719 31.0156 30.4531C30.8802 30.2292 30.6797 30.0443 30.4141 29.8984C30.1536 29.7526 29.8333 29.6797 29.4531 29.6797C29.0521 29.6797 28.7266 29.7422 28.4766 29.8672C28.2318 29.987 28.0521 30.1406 27.9375 30.3281C27.8281 30.5156 27.7734 30.7135 27.7734 30.9219C27.7734 31.0781 27.7995 31.2188 27.8516 31.3438C27.9089 31.4635 28.0078 31.5755 28.1484 31.6797C28.2891 31.7786 28.487 31.8724 28.7422 31.9609C28.9974 32.0495 29.3229 32.138 29.7188 32.2266C30.4115 32.3828 30.9818 32.5703 31.4297 32.7891C31.8776 33.0078 32.2109 33.276 32.4297 33.5938C32.6484 33.9115 32.7578 34.2969 32.7578 34.75C32.7578 35.1198 32.6797 35.4583 32.5234 35.7656C32.3724 36.0729 32.151 36.3385 31.8594 36.5625C31.5729 36.7812 31.2292 36.9531 30.8281 37.0781C30.4323 37.1979 29.987 37.2578 29.4922 37.2578C28.7474 37.2578 28.1172 37.125 27.6016 36.8594C27.0859 36.5938 26.6953 36.25 26.4297 35.8281C26.1641 35.4062 26.0312 34.9609 26.0312 34.4922H27.4844C27.5052 34.888 27.6198 35.2031 27.8281 35.4375C28.0365 35.6667 28.2917 35.8307 28.5938 35.9297C28.8958 36.0234 29.1953 36.0703 29.4922 36.0703C29.888 36.0703 30.2188 36.0182 30.4844 35.9141C30.7552 35.8099 30.9609 35.6667 31.1016 35.4844C31.2422 35.3021 31.3125 35.0938 31.3125 34.8594ZM42.5703 27.9688H43.6797C43.6797 28.5365 43.6042 29.013 43.4531 29.3984C43.3073 29.7839 43.0495 30.0729 42.6797 30.2656C42.3099 30.4583 41.7891 30.5547 41.1172 30.5547V29.6641C41.5859 29.6641 41.9219 29.6068 42.125 29.4922C42.3281 29.3724 42.4531 29.1875 42.5 28.9375C42.5469 28.6875 42.5703 28.3646 42.5703 27.9688ZM39.8281 35.1484V28.6484H41.2812V37.1016H39.8984L39.8281 35.1484ZM40.1016 33.3672L40.7031 33.3516C40.7031 33.9141 40.6432 34.4349 40.5234 34.9141C40.4089 35.388 40.2214 35.7995 39.9609 36.1484C39.7005 36.4974 39.3594 36.7708 38.9375 36.9688C38.5156 37.1615 38.0026 37.2578 37.3984 37.2578C36.987 37.2578 36.6094 37.1979 36.2656 37.0781C35.9271 36.9583 35.6354 36.7734 35.3906 36.5234C35.1458 36.2734 34.9557 35.9479 34.8203 35.5469C34.6901 35.1458 34.625 34.6641 34.625 34.1016V28.6484H36.0703V34.1172C36.0703 34.4974 36.112 34.8125 36.1953 35.0625C36.2839 35.3073 36.401 35.5026 36.5469 35.6484C36.6979 35.7891 36.8646 35.888 37.0469 35.9453C37.2344 36.0026 37.4271 36.0312 37.625 36.0312C38.2396 36.0312 38.7266 35.9141 39.0859 35.6797C39.4453 35.4401 39.7031 35.1198 39.8594 34.7188C40.0208 34.3125 40.1016 33.862 40.1016 33.3672ZM37.2891 27.5625L38.8047 25.2656H40.5469L38.4531 27.5625H37.2891ZM47.9453 36.0703C48.2891 36.0703 48.6068 36 48.8984 35.8594C49.1901 35.7188 49.4297 35.526 49.6172 35.2812C49.8047 35.0312 49.9115 34.7474 49.9375 34.4297H51.3125C51.2865 34.9297 51.1172 35.3958 50.8047 35.8281C50.4974 36.2552 50.0938 36.6016 49.5938 36.8672C49.0938 37.1276 48.5443 37.2578 47.9453 37.2578C47.3099 37.2578 46.7552 37.1458 46.2812 36.9219C45.8125 36.6979 45.4219 36.3906 45.1094 36C44.8021 35.6094 44.5703 35.1615 44.4141 34.6562C44.263 34.1458 44.1875 33.6068 44.1875 33.0391V32.7109C44.1875 32.1432 44.263 31.6068 44.4141 31.1016C44.5703 30.5911 44.8021 30.1406 45.1094 29.75C45.4219 29.3594 45.8125 29.0521 46.2812 28.8281C46.7552 28.6042 47.3099 28.4922 47.9453 28.4922C48.6068 28.4922 49.1849 28.6276 49.6797 28.8984C50.1745 29.1641 50.5625 29.5286 50.8438 29.9922C51.1302 30.4505 51.2865 30.9714 51.3125 31.5547H49.9375C49.9115 31.2057 49.8125 30.8906 49.6406 30.6094C49.474 30.3281 49.2448 30.1042 48.9531 29.9375C48.6667 29.7656 48.3307 29.6797 47.9453 29.6797C47.5026 29.6797 47.1302 29.7682 46.8281 29.9453C46.5312 30.1172 46.2943 30.3516 46.1172 30.6484C45.9453 30.9401 45.8203 31.2656 45.7422 31.625C45.6693 31.9792 45.6328 32.3411 45.6328 32.7109V33.0391C45.6328 33.4089 45.6693 33.7734 45.7422 34.1328C45.8151 34.4922 45.9375 34.8177 46.1094 35.1094C46.2865 35.401 46.5234 35.6354 46.8203 35.8125C47.1224 35.9844 47.4974 36.0703 47.9453 36.0703ZM58.3594 25.1016V37.1016H56.9062V25.1016H58.3594ZM63.5234 28.6484L59.8359 32.5938L57.7734 34.7344L57.6562 33.1953L59.1328 31.4297L61.7578 28.6484H63.5234ZM62.2031 37.1016L59.1875 33.0703L59.9375 31.7812L63.9062 37.1016H62.2031ZM66.4609 25.1016V37.1016H65.0156V25.1016H66.4609ZM66.1172 32.5547L65.5156 32.5312C65.5208 31.9531 65.6068 31.4193 65.7734 30.9297C65.9401 30.4349 66.1745 30.0052 66.4766 29.6406C66.7786 29.276 67.138 28.9948 67.5547 28.7969C67.9766 28.5938 68.4427 28.4922 68.9531 28.4922C69.3698 28.4922 69.7448 28.5495 70.0781 28.6641C70.4115 28.7734 70.6953 28.9505 70.9297 29.1953C71.1693 29.4401 71.3516 29.7578 71.4766 30.1484C71.6016 30.5339 71.6641 31.0052 71.6641 31.5625V37.1016H70.2109V31.5469C70.2109 31.1042 70.1458 30.75 70.0156 30.4844C69.8854 30.2135 69.6953 30.0182 69.4453 29.8984C69.1953 29.7734 68.888 29.7109 68.5234 29.7109C68.1641 29.7109 67.8359 29.7865 67.5391 29.9375C67.2474 30.0885 66.9948 30.2969 66.7812 30.5625C66.5729 30.8281 66.4089 31.1328 66.2891 31.4766C66.1745 31.8151 66.1172 32.1745 66.1172 32.5547ZM73.4453 32.9688V32.7891C73.4453 32.1797 73.5339 31.6146 73.7109 31.0938C73.888 30.5677 74.1432 30.112 74.4766 29.7266C74.8099 29.3359 75.2135 29.0339 75.6875 28.8203C76.1615 28.6016 76.6927 28.4922 77.2812 28.4922C77.875 28.4922 78.4089 28.6016 78.8828 28.8203C79.362 29.0339 79.7682 29.3359 80.1016 29.7266C80.4401 30.112 80.6979 30.5677 80.875 31.0938C81.0521 31.6146 81.1406 32.1797 81.1406 32.7891V32.9688C81.1406 33.5781 81.0521 34.1432 80.875 34.6641C80.6979 35.1849 80.4401 35.6406 80.1016 36.0312C79.7682 36.4167 79.3646 36.7188 78.8906 36.9375C78.4219 37.151 77.8906 37.2578 77.2969 37.2578C76.7031 37.2578 76.1693 37.151 75.6953 36.9375C75.2214 36.7188 74.8151 36.4167 74.4766 36.0312C74.1432 35.6406 73.888 35.1849 73.7109 34.6641C73.5339 34.1432 73.4453 33.5781 73.4453 32.9688ZM74.8906 32.7891V32.9688C74.8906 33.3906 74.9401 33.7891 75.0391 34.1641C75.138 34.5339 75.2865 34.862 75.4844 35.1484C75.6875 35.4349 75.9401 35.6615 76.2422 35.8281C76.5443 35.9896 76.8958 36.0703 77.2969 36.0703C77.6927 36.0703 78.0391 35.9896 78.3359 35.8281C78.638 35.6615 78.888 35.4349 79.0859 35.1484C79.2839 34.862 79.4323 34.5339 79.5312 34.1641C79.6354 33.7891 79.6875 33.3906 79.6875 32.9688V32.7891C79.6875 32.3724 79.6354 31.9792 79.5312 31.6094C79.4323 31.2344 79.2812 30.9036 79.0781 30.6172C78.8802 30.3255 78.6302 30.0964 78.3281 29.9297C78.0312 29.763 77.6823 29.6797 77.2812 29.6797C76.8854 29.6797 76.5365 29.763 76.2344 29.9297C75.9375 30.0964 75.6875 30.3255 75.4844 30.6172C75.2865 30.9036 75.138 31.2344 75.0391 31.6094C74.9401 31.9792 74.8906 32.3724 74.8906 32.7891ZM77.7656 27.2734H76.7266L76.7188 26.0859C76.9844 26.0703 77.2005 26.0443 77.3672 26.0078C77.5339 25.9661 77.6562 25.9062 77.7344 25.8281C77.8125 25.7448 77.8516 25.6354 77.8516 25.5C77.8516 25.3906 77.8177 25.2995 77.75 25.2266C77.6823 25.1484 77.5885 25.0859 77.4688 25.0391C77.349 24.987 77.2109 24.9505 77.0547 24.9297C76.8984 24.9089 76.7318 24.8984 76.5547 24.8984L76.6094 24.0703C76.9948 24.0703 77.3333 24.1042 77.625 24.1719C77.9219 24.2396 78.1693 24.3385 78.3672 24.4688C78.5703 24.599 78.7214 24.7552 78.8203 24.9375C78.9245 25.1146 78.9766 25.3125 78.9766 25.5312C78.9766 25.9271 78.8516 26.2161 78.6016 26.3984C78.3516 26.5755 78.0755 26.6849 77.7734 26.7266L77.7656 27.2734ZM86.4609 37.2578C85.8724 37.2578 85.3385 37.1589 84.8594 36.9609C84.3854 36.7578 83.9766 36.474 83.6328 36.1094C83.2943 35.7448 83.0339 35.3125 82.8516 34.8125C82.6693 34.3125 82.5781 33.7656 82.5781 33.1719V32.8438C82.5781 32.1562 82.6797 31.5443 82.8828 31.0078C83.0859 30.4661 83.362 30.0078 83.7109 29.6328C84.0599 29.2578 84.4557 28.974 84.8984 28.7812C85.3411 28.5885 85.7995 28.4922 86.2734 28.4922C86.8776 28.4922 87.3984 28.5964 87.8359 28.8047C88.2786 29.013 88.6406 29.3047 88.9219 29.6797C89.2031 30.0495 89.4115 30.487 89.5469 30.9922C89.6823 31.4922 89.75 32.0391 89.75 32.6328V33.2812H83.4375V32.1016H88.3047V31.9922C88.2839 31.6172 88.2057 31.2526 88.0703 30.8984C87.9401 30.5443 87.7318 30.2526 87.4453 30.0234C87.1589 29.7943 86.7682 29.6797 86.2734 29.6797C85.9453 29.6797 85.6432 29.75 85.3672 29.8906C85.0911 30.026 84.8542 30.2292 84.6562 30.5C84.4583 30.7708 84.3047 31.1016 84.1953 31.4922C84.0859 31.8828 84.0312 32.3333 84.0312 32.8438V33.1719C84.0312 33.5729 84.0859 33.9505 84.1953 34.3047C84.3099 34.6536 84.474 34.9609 84.6875 35.2266C84.9062 35.4922 85.1693 35.7005 85.4766 35.8516C85.7891 36.0026 86.1432 36.0781 86.5391 36.0781C87.0495 36.0781 87.4818 35.974 87.8359 35.7656C88.1901 35.5573 88.5 35.2786 88.7656 34.9297L89.6406 35.625C89.4583 35.901 89.2266 36.1641 88.9453 36.4141C88.6641 36.6641 88.3177 36.8672 87.9062 37.0234C87.5 37.1797 87.0182 37.2578 86.4609 37.2578ZM96.8516 25.1016V37.1016H95.4062V25.1016H96.8516ZM96.5078 32.5547L95.9062 32.5312C95.9115 31.9531 95.9974 31.4193 96.1641 30.9297C96.3307 30.4349 96.5651 30.0052 96.8672 29.6406C97.1693 29.276 97.5286 28.9948 97.9453 28.7969C98.3672 28.5938 98.8333 28.4922 99.3438 28.4922C99.7604 28.4922 100.135 28.5495 100.469 28.6641C100.802 28.7734 101.086 28.9505 101.32 29.1953C101.56 29.4401 101.742 29.7578 101.867 30.1484C101.992 30.5339 102.055 31.0052 102.055 31.5625V37.1016H100.602V31.5469C100.602 31.1042 100.536 30.75 100.406 30.4844C100.276 30.2135 100.086 30.0182 99.8359 29.8984C99.5859 29.7734 99.2786 29.7109 98.9141 29.7109C98.5547 29.7109 98.2266 29.7865 97.9297 29.9375C97.638 30.0885 97.3854 30.2969 97.1719 30.5625C96.9635 30.8281 96.7995 31.1328 96.6797 31.4766C96.5651 31.8151 96.5078 32.1745 96.5078 32.5547ZM109.203 35.6562V31.3047C109.203 30.9714 109.135 30.6823 109 30.4375C108.87 30.1875 108.672 29.9948 108.406 29.8594C108.141 29.724 107.812 29.6562 107.422 29.6562C107.057 29.6562 106.737 29.7188 106.461 29.8438C106.19 29.9688 105.977 30.1328 105.82 30.3359C105.669 30.5391 105.594 30.7578 105.594 30.9922H104.148C104.148 30.6901 104.227 30.3906 104.383 30.0938C104.539 29.7969 104.763 29.5286 105.055 29.2891C105.352 29.0443 105.706 28.8516 106.117 28.7109C106.534 28.5651 106.997 28.4922 107.508 28.4922C108.122 28.4922 108.664 28.5964 109.133 28.8047C109.607 29.013 109.977 29.3281 110.242 29.75C110.513 30.1667 110.648 30.6901 110.648 31.3203V35.2578C110.648 35.5391 110.672 35.8385 110.719 36.1562C110.771 36.474 110.846 36.7474 110.945 36.9766V37.1016H109.438C109.365 36.9349 109.307 36.7135 109.266 36.4375C109.224 36.1562 109.203 35.8958 109.203 35.6562ZM109.453 31.9766L109.469 32.9922H108.008C107.596 32.9922 107.229 33.026 106.906 33.0938C106.583 33.1562 106.312 33.2526 106.094 33.3828C105.875 33.513 105.708 33.6771 105.594 33.875C105.479 34.0677 105.422 34.2943 105.422 34.5547C105.422 34.8203 105.482 35.0625 105.602 35.2812C105.721 35.5 105.901 35.6745 106.141 35.8047C106.385 35.9297 106.685 35.9922 107.039 35.9922C107.482 35.9922 107.872 35.8984 108.211 35.7109C108.549 35.5234 108.818 35.2943 109.016 35.0234C109.219 34.7526 109.328 34.4896 109.344 34.2344L109.961 34.9297C109.924 35.1484 109.826 35.3906 109.664 35.6562C109.503 35.9219 109.286 36.1771 109.016 36.4219C108.75 36.6615 108.432 36.862 108.062 37.0234C107.698 37.1797 107.286 37.2578 106.828 37.2578C106.255 37.2578 105.753 37.1458 105.32 36.9219C104.893 36.6979 104.56 36.3984 104.32 36.0234C104.086 35.6432 103.969 35.2188 103.969 34.75C103.969 34.2969 104.057 33.8984 104.234 33.5547C104.411 33.2057 104.667 32.9167 105 32.6875C105.333 32.4531 105.734 32.276 106.203 32.1562C106.672 32.0365 107.195 31.9766 107.773 31.9766H109.453ZM106.977 25.1016L108.484 27.3984H107.242L105.227 25.1016H106.977ZM114.367 30.4531V37.1016H112.922V28.6484H114.289L114.367 30.4531ZM114.023 32.5547L113.422 32.5312C113.427 31.9531 113.513 31.4193 113.68 30.9297C113.846 30.4349 114.081 30.0052 114.383 29.6406C114.685 29.276 115.044 28.9948 115.461 28.7969C115.883 28.5938 116.349 28.4922 116.859 28.4922C117.276 28.4922 117.651 28.5495 117.984 28.6641C118.318 28.7734 118.602 28.9505 118.836 29.1953C119.076 29.4401 119.258 29.7578 119.383 30.1484C119.508 30.5339 119.57 31.0052 119.57 31.5625V37.1016H118.117V31.5469C118.117 31.1042 118.052 30.75 117.922 30.4844C117.792 30.2135 117.602 30.0182 117.352 29.8984C117.102 29.7734 116.794 29.7109 116.43 29.7109C116.07 29.7109 115.742 29.7865 115.445 29.9375C115.154 30.0885 114.901 30.2969 114.688 30.5625C114.479 30.8281 114.315 31.1328 114.195 31.4766C114.081 31.8151 114.023 32.1745 114.023 32.5547ZM127.242 28.6484H128.555V36.9219C128.555 37.6667 128.404 38.3021 128.102 38.8281C127.799 39.3542 127.378 39.7526 126.836 40.0234C126.299 40.2995 125.68 40.4375 124.977 40.4375C124.685 40.4375 124.341 40.3906 123.945 40.2969C123.555 40.2083 123.169 40.0547 122.789 39.8359C122.414 39.6224 122.099 39.3333 121.844 38.9688L122.602 38.1094C122.956 38.5365 123.326 38.8333 123.711 39C124.102 39.1667 124.487 39.25 124.867 39.25C125.326 39.25 125.721 39.1641 126.055 38.9922C126.388 38.8203 126.646 38.5651 126.828 38.2266C127.016 37.8932 127.109 37.4818 127.109 36.9922V30.5078L127.242 28.6484ZM121.422 32.9688V32.8047C121.422 32.1589 121.497 31.5729 121.648 31.0469C121.805 30.5156 122.026 30.0599 122.312 29.6797C122.604 29.2995 122.956 29.0078 123.367 28.8047C123.779 28.5964 124.242 28.4922 124.758 28.4922C125.289 28.4922 125.753 28.5859 126.148 28.7734C126.549 28.9557 126.888 29.224 127.164 29.5781C127.445 29.9271 127.667 30.349 127.828 30.8438C127.99 31.3385 128.102 31.8984 128.164 32.5234V33.2422C128.107 33.862 127.995 34.4193 127.828 34.9141C127.667 35.4089 127.445 35.8307 127.164 36.1797C126.888 36.5286 126.549 36.7969 126.148 36.9844C125.747 37.1667 125.279 37.2578 124.742 37.2578C124.237 37.2578 123.779 37.151 123.367 36.9375C122.961 36.724 122.612 36.4245 122.32 36.0391C122.029 35.6536 121.805 35.2005 121.648 34.6797C121.497 34.1536 121.422 33.5833 121.422 32.9688ZM122.867 32.8047V32.9688C122.867 33.3906 122.909 33.7865 122.992 34.1562C123.081 34.526 123.214 34.8516 123.391 35.1328C123.573 35.4141 123.805 35.6354 124.086 35.7969C124.367 35.9531 124.703 36.0312 125.094 36.0312C125.573 36.0312 125.969 35.9297 126.281 35.7266C126.594 35.5234 126.841 35.2552 127.023 34.9219C127.211 34.5885 127.357 34.2266 127.461 33.8359V31.9531C127.404 31.6667 127.315 31.3906 127.195 31.125C127.081 30.8542 126.93 30.6146 126.742 30.4062C126.56 30.1927 126.333 30.0234 126.062 29.8984C125.792 29.7734 125.474 29.7109 125.109 29.7109C124.714 29.7109 124.372 29.7943 124.086 29.9609C123.805 30.1224 123.573 30.3464 123.391 30.6328C123.214 30.9141 123.081 31.2422 122.992 31.6172C122.909 31.987 122.867 32.3828 122.867 32.8047ZM138.258 28.6484V29.7578H133.688V28.6484H138.258ZM135.234 26.5938H136.68V35.0078C136.68 35.2943 136.724 35.5104 136.812 35.6562C136.901 35.8021 137.016 35.8984 137.156 35.9453C137.297 35.9922 137.448 36.0156 137.609 36.0156C137.729 36.0156 137.854 36.0052 137.984 35.9844C138.12 35.9583 138.221 35.9375 138.289 35.9219L138.297 37.1016C138.182 37.138 138.031 37.1719 137.844 37.2031C137.661 37.2396 137.44 37.2578 137.18 37.2578C136.826 37.2578 136.5 37.1875 136.203 37.0469C135.906 36.9062 135.669 36.6719 135.492 36.3438C135.32 36.0104 135.234 35.5625 135.234 35V26.5938ZM145.125 35.1484V28.6484H146.578V37.1016H145.195L145.125 35.1484ZM145.398 33.3672L146 33.3516C146 33.9141 145.94 34.4349 145.82 34.9141C145.706 35.388 145.518 35.7995 145.258 36.1484C144.997 36.4974 144.656 36.7708 144.234 36.9688C143.812 37.1615 143.299 37.2578 142.695 37.2578C142.284 37.2578 141.906 37.1979 141.562 37.0781C141.224 36.9583 140.932 36.7734 140.688 36.5234C140.443 36.2734 140.253 35.9479 140.117 35.5469C139.987 35.1458 139.922 34.6641 139.922 34.1016V28.6484H141.367V34.1172C141.367 34.4974 141.409 34.8125 141.492 35.0625C141.581 35.3073 141.698 35.5026 141.844 35.6484C141.995 35.7891 142.161 35.888 142.344 35.9453C142.531 36.0026 142.724 36.0312 142.922 36.0312C143.536 36.0312 144.023 35.9141 144.383 35.6797C144.742 35.4401 145 35.1198 145.156 34.7188C145.318 34.3125 145.398 33.862 145.398 33.3672ZM153.766 35.6562V31.3047C153.766 30.9714 153.698 30.6823 153.562 30.4375C153.432 30.1875 153.234 29.9948 152.969 29.8594C152.703 29.724 152.375 29.6562 151.984 29.6562C151.62 29.6562 151.299 29.7188 151.023 29.8438C150.753 29.9688 150.539 30.1328 150.383 30.3359C150.232 30.5391 150.156 30.7578 150.156 30.9922H148.711C148.711 30.6901 148.789 30.3906 148.945 30.0938C149.102 29.7969 149.326 29.5286 149.617 29.2891C149.914 29.0443 150.268 28.8516 150.68 28.7109C151.096 28.5651 151.56 28.4922 152.07 28.4922C152.685 28.4922 153.227 28.5964 153.695 28.8047C154.169 29.013 154.539 29.3281 154.805 29.75C155.076 30.1667 155.211 30.6901 155.211 31.3203V35.2578C155.211 35.5391 155.234 35.8385 155.281 36.1562C155.333 36.474 155.409 36.7474 155.508 36.9766V37.1016H154C153.927 36.9349 153.87 36.7135 153.828 36.4375C153.786 36.1562 153.766 35.8958 153.766 35.6562ZM154.016 31.9766L154.031 32.9922H152.57C152.159 32.9922 151.792 33.026 151.469 33.0938C151.146 33.1562 150.875 33.2526 150.656 33.3828C150.438 33.513 150.271 33.6771 150.156 33.875C150.042 34.0677 149.984 34.2943 149.984 34.5547C149.984 34.8203 150.044 35.0625 150.164 35.2812C150.284 35.5 150.464 35.6745 150.703 35.8047C150.948 35.9297 151.247 35.9922 151.602 35.9922C152.044 35.9922 152.435 35.8984 152.773 35.7109C153.112 35.5234 153.38 35.2943 153.578 35.0234C153.781 34.7526 153.891 34.4896 153.906 34.2344L154.523 34.9297C154.487 35.1484 154.388 35.3906 154.227 35.6562C154.065 35.9219 153.849 36.1771 153.578 36.4219C153.312 36.6615 152.995 36.862 152.625 37.0234C152.26 37.1797 151.849 37.2578 151.391 37.2578C150.818 37.2578 150.315 37.1458 149.883 36.9219C149.456 36.6979 149.122 36.3984 148.883 36.0234C148.648 35.6432 148.531 35.2188 148.531 34.75C148.531 34.2969 148.62 33.8984 148.797 33.5547C148.974 33.2057 149.229 32.9167 149.562 32.6875C149.896 32.4531 150.297 32.276 150.766 32.1562C151.234 32.0365 151.758 31.9766 152.336 31.9766H154.016ZM152.797 25.3828L155.078 27.4375H153.531L152.203 26.1953L150.883 27.4375H149.344L151.609 25.3828H152.797ZM148.812 24.0312L149.922 26.0469H148.82L147.25 24.0312H148.812ZM158.93 30.4531V37.1016H157.484V28.6484H158.852L158.93 30.4531ZM158.586 32.5547L157.984 32.5312C157.99 31.9531 158.076 31.4193 158.242 30.9297C158.409 30.4349 158.643 30.0052 158.945 29.6406C159.247 29.276 159.607 28.9948 160.023 28.7969C160.445 28.5938 160.911 28.4922 161.422 28.4922C161.839 28.4922 162.214 28.5495 162.547 28.6641C162.88 28.7734 163.164 28.9505 163.398 29.1953C163.638 29.4401 163.82 29.7578 163.945 30.1484C164.07 30.5339 164.133 31.0052 164.133 31.5625V37.1016H162.68V31.5469C162.68 31.1042 162.615 30.75 162.484 30.4844C162.354 30.2135 162.164 30.0182 161.914 29.8984C161.664 29.7734 161.357 29.7109 160.992 29.7109C160.633 29.7109 160.305 29.7865 160.008 29.9375C159.716 30.0885 159.464 30.2969 159.25 30.5625C159.042 30.8281 158.878 31.1328 158.758 31.4766C158.643 31.8151 158.586 32.1745 158.586 32.5547ZM166.352 36.3359C166.352 36.0911 166.427 35.8854 166.578 35.7188C166.734 35.5469 166.958 35.4609 167.25 35.4609C167.542 35.4609 167.763 35.5469 167.914 35.7188C168.07 35.8854 168.148 36.0911 168.148 36.3359C168.148 36.5755 168.07 36.7786 167.914 36.9453C167.763 37.112 167.542 37.1953 167.25 37.1953C166.958 37.1953 166.734 37.112 166.578 36.9453C166.427 36.7786 166.352 36.5755 166.352 36.3359Z" fill="#3E4A41"/>
</g>
</g>
</g>
</g>
</g>
</svg>
