<svg width="32" height="35" viewBox="0 0 32 35" fill="none" xmlns="http://www.w3.org/2000/svg">
<rect width="32" height="35" fill="#F5F5F5"/>
<g id="Trang Gi&#225;&#187;&#143; H&#195;&#160;ng">
<rect width="1280" height="1428.16" transform="translate(-760.333 -464.19)" fill="white"/>
<rect width="1280" height="1428.16" transform="translate(-760.333 -464.19)" fill="#FCF9F8"/>
<g id="Main">
<g id="Container">
<g id="Cart Items List">
<g id="Item 1" filter="url(#filter0_d_16_2)">
<rect x="-700.333" y="-91" width="757.333" height="150.77" rx="12" fill="#FCF9F8" shape-rendering="crispEdges"/>
<rect x="-699.833" y="-90.5" width="756.333" height="149.77" rx="11.5" stroke="#BFCABA" stroke-opacity="0.3" shape-rendering="crispEdges"/>
<g id="Container_2">
<g id="Container_3">
<g id="Button">
<g id="Container_4">
<path id="Icon" d="M11 26.76C10.45 26.76 9.97917 26.5642 9.5875 26.1725C9.19583 25.7808 9 25.31 9 24.76V11.76H8V9.76001H13V8.76001H19V9.76001H24V11.76H23V24.76C23 25.31 22.8042 25.7808 22.4125 26.1725C22.0208 26.5642 21.55 26.76 21 26.76H11ZM21 11.76H11V24.76H21V11.76ZM13 22.76H15V13.76H13V22.76ZM17 22.76H19V13.76H17V22.76ZM11 11.76V24.76V11.76Z" fill="#BA1A1A"/>
</g>
</g>
</g>
</g>
</g>
</g>
</g>
</g>
</g>
<defs>
<filter id="filter0_d_16_2" x="-702.333" y="-92" width="761.333" height="154.77" filterUnits="userSpaceOnUse" color-interpolation-filters="sRGB">
<feFlood flood-opacity="0" result="BackgroundImageFix"/>
<feColorMatrix in="SourceAlpha" type="matrix" values="0 0 0 0 0 0 0 0 0 0 0 0 0 0 0 0 0 0 127 0" result="hardAlpha"/>
<feOffset dy="1"/>
<feGaussianBlur stdDeviation="1"/>
<feComposite in2="hardAlpha" operator="out"/>
<feColorMatrix type="matrix" values="0 0 0 0 0 0 0 0 0 0 0 0 0 0 0 0 0 0 0.05 0"/>
<feBlend mode="normal" in2="BackgroundImageFix" result="effect1_dropShadow_16_2"/>
<feBlend mode="normal" in="SourceGraphic" in2="effect1_dropShadow_16_2" result="shape"/>
</filter>
</defs>
</svg>
